<mxfile host="app.diagrams.net" agent="Mozilla/5.0 (Windows NT 10.0; Win64; x64) AppleWebKit/537.36 (KHTML, like Gecko) Chrome/131.0.0.0 Safari/537.36" version="25.0.3">
  <diagram name="Page-1" id="12e1b939-464a-85fe-373e-61e167be1490">
    <mxGraphModel dx="4633.5" dy="1550" grid="1" gridSize="10" guides="1" tooltips="1" connect="1" arrows="1" fold="1" page="1" pageScale="1.5" pageWidth="1169" pageHeight="826" background="none" math="0" shadow="0">
      <root>
        <mxCell id="0" />
        <mxCell id="1" parent="0" />
        <mxCell id="sJ7baZli-LUsm7lm-XYr-1" value="&lt;font style=&quot;font-size: 36px;&quot;&gt;Simulator&lt;/font&gt;" style="rounded=0;whiteSpace=wrap;html=1;fillColor=#dae8fc;strokeColor=#330000;opacity=60;labelPosition=center;verticalLabelPosition=middle;align=center;verticalAlign=middle;fontFamily=Times New Roman;fontSize=20;dashed=1;strokeWidth=3;fontStyle=1" parent="1" vertex="1">
          <mxGeometry x="-1102" y="265" width="320" height="100" as="geometry" />
        </mxCell>
        <mxCell id="sJ7baZli-LUsm7lm-XYr-2" value="" style="rounded=0;whiteSpace=wrap;html=1;fillColor=#f5f5f5;fontColor=#333333;strokeColor=default;gradientColor=none;opacity=60;labelPosition=center;verticalLabelPosition=middle;align=center;verticalAlign=middle;fontFamily=Times New Roman;fontSize=20;dashed=1;strokeWidth=3;" parent="1" vertex="1">
          <mxGeometry x="-760" y="265" width="440" height="801" as="geometry" />
        </mxCell>
        <mxCell id="sJ7baZli-LUsm7lm-XYr-3" value="" style="rounded=0;whiteSpace=wrap;html=1;fillColor=#f5f5f5;fontColor=#333333;strokeColor=default;gradientColor=none;opacity=60;labelPosition=center;verticalLabelPosition=middle;align=center;verticalAlign=middle;fontFamily=Times New Roman;fontSize=20;dashed=1;strokeWidth=3;" parent="1" vertex="1">
          <mxGeometry x="160" y="265" width="480" height="801" as="geometry" />
        </mxCell>
        <mxCell id="sJ7baZli-LUsm7lm-XYr-4" value="" style="rounded=0;whiteSpace=wrap;html=1;fillColor=#f5f5f5;fontColor=#333333;strokeColor=default;gradientColor=none;opacity=60;labelPosition=center;verticalLabelPosition=middle;align=center;verticalAlign=middle;fontFamily=Times New Roman;fontSize=20;dashed=1;strokeWidth=3;" parent="1" vertex="1">
          <mxGeometry x="-280" y="265" width="400" height="801" as="geometry" />
        </mxCell>
        <mxCell id="9zjzxFCtPWCpPwQ-u-JS-1" value="" style="endArrow=classic;html=1;rounded=0;strokeColor=#3333FF;strokeWidth=3;" edge="1" parent="1">
          <mxGeometry width="50" height="50" relative="1" as="geometry">
            <mxPoint x="-800" y="185" as="sourcePoint" />
            <mxPoint x="1210" y="185" as="targetPoint" />
          </mxGeometry>
        </mxCell>
        <mxCell id="9zjzxFCtPWCpPwQ-u-JS-3" value="&lt;font style=&quot;font-size: 36px;&quot;&gt;Applications&lt;/font&gt;" style="rounded=0;whiteSpace=wrap;html=1;fillColor=#dae8fc;strokeColor=#330000;opacity=60;labelPosition=center;verticalLabelPosition=middle;align=center;verticalAlign=middle;fontFamily=Times New Roman;fontSize=20;dashed=1;strokeWidth=3;fontStyle=1" vertex="1" parent="1">
          <mxGeometry x="-1102" y="825" width="320" height="100" as="geometry" />
        </mxCell>
        <mxCell id="9zjzxFCtPWCpPwQ-u-JS-4" value="&lt;font style=&quot;font-size: 36px;&quot;&gt;Physical Backends&lt;/font&gt;" style="rounded=0;whiteSpace=wrap;html=1;fillColor=#d5e8d4;strokeColor=#330000;opacity=60;labelPosition=center;verticalLabelPosition=middle;align=center;verticalAlign=middle;fontFamily=Times New Roman;fontSize=20;dashed=1;strokeWidth=3;fontStyle=1" vertex="1" parent="1">
          <mxGeometry x="-1102" y="401" width="320" height="100" as="geometry" />
        </mxCell>
        <mxCell id="9zjzxFCtPWCpPwQ-u-JS-5" value="&lt;font style=&quot;font-size: 36px;&quot;&gt;Quantum Entities&lt;/font&gt;" style="rounded=0;whiteSpace=wrap;html=1;fillColor=#fff2cc;strokeColor=#330000;opacity=60;labelPosition=center;verticalLabelPosition=middle;align=center;verticalAlign=middle;fontFamily=Times New Roman;fontSize=20;dashed=1;strokeWidth=3;fontStyle=1" vertex="1" parent="1">
          <mxGeometry x="-1102" y="541" width="320" height="100" as="geometry" />
        </mxCell>
        <mxCell id="9zjzxFCtPWCpPwQ-u-JS-6" value="&lt;font style=&quot;font-size: 36px;&quot;&gt;Network Utilities&lt;/font&gt;" style="rounded=0;whiteSpace=wrap;html=1;fillColor=#f8cecc;strokeColor=#330000;opacity=60;labelPosition=center;verticalLabelPosition=middle;align=center;verticalAlign=middle;fontFamily=Times New Roman;fontSize=20;dashed=1;strokeWidth=3;fontStyle=1" vertex="1" parent="1">
          <mxGeometry x="-1102" y="682" width="320" height="100" as="geometry" />
        </mxCell>
        <mxCell id="9zjzxFCtPWCpPwQ-u-JS-7" value="&lt;font style=&quot;font-size: 36px;&quot;&gt;Tools&lt;/font&gt;" style="rounded=0;whiteSpace=wrap;html=1;fillColor=#fff2cc;strokeColor=#330000;opacity=60;labelPosition=center;verticalLabelPosition=middle;align=center;verticalAlign=middle;fontFamily=Times New Roman;fontSize=20;dashed=1;strokeWidth=3;fontStyle=1" vertex="1" parent="1">
          <mxGeometry x="-1102" y="963" width="320" height="100" as="geometry" />
        </mxCell>
        <mxCell id="9zjzxFCtPWCpPwQ-u-JS-9" value="" style="rounded=0;whiteSpace=wrap;html=1;fillColor=#f5f5f5;fontColor=#333333;strokeColor=default;gradientColor=none;opacity=60;labelPosition=center;verticalLabelPosition=middle;align=center;verticalAlign=middle;fontFamily=Times New Roman;fontSize=20;dashed=1;strokeWidth=3;" vertex="1" parent="1">
          <mxGeometry x="680" y="265" width="480" height="801" as="geometry" />
        </mxCell>
        <mxCell id="9zjzxFCtPWCpPwQ-u-JS-10" value="&lt;span style=&quot;font-size: 36px;&quot;&gt;2022.03&lt;/span&gt;" style="rounded=0;whiteSpace=wrap;html=1;fillColor=#dae8fc;strokeColor=#330000;opacity=60;labelPosition=center;verticalLabelPosition=middle;align=center;verticalAlign=middle;fontFamily=Times New Roman;fontSize=20;dashed=1;strokeWidth=3;fontStyle=1" vertex="1" parent="1">
          <mxGeometry x="-450" y="103" width="130" height="70" as="geometry" />
        </mxCell>
        <mxCell id="9zjzxFCtPWCpPwQ-u-JS-11" value="&lt;span style=&quot;font-size: 36px;&quot;&gt;2022.04&lt;/span&gt;" style="rounded=0;whiteSpace=wrap;html=1;fillColor=#dae8fc;strokeColor=#330000;opacity=60;labelPosition=center;verticalLabelPosition=middle;align=center;verticalAlign=middle;fontFamily=Times New Roman;fontSize=20;dashed=1;strokeWidth=3;fontStyle=1" vertex="1" parent="1">
          <mxGeometry x="-280" y="103" width="130" height="70" as="geometry" />
        </mxCell>
        <mxCell id="9zjzxFCtPWCpPwQ-u-JS-12" value="&lt;span style=&quot;font-size: 36px;&quot;&gt;2024.01&lt;/span&gt;" style="rounded=0;whiteSpace=wrap;html=1;fillColor=#dae8fc;strokeColor=#330000;opacity=60;labelPosition=center;verticalLabelPosition=middle;align=center;verticalAlign=middle;fontFamily=Times New Roman;fontSize=20;dashed=1;strokeWidth=3;fontStyle=1" vertex="1" parent="1">
          <mxGeometry x="160" y="103" width="130" height="70" as="geometry" />
        </mxCell>
        <mxCell id="9zjzxFCtPWCpPwQ-u-JS-13" value="&lt;span style=&quot;font-size: 36px;&quot;&gt;2023.12&lt;/span&gt;" style="rounded=0;whiteSpace=wrap;html=1;fillColor=#dae8fc;strokeColor=#330000;opacity=60;labelPosition=center;verticalLabelPosition=middle;align=center;verticalAlign=middle;fontFamily=Times New Roman;fontSize=20;dashed=1;strokeWidth=3;fontStyle=1" vertex="1" parent="1">
          <mxGeometry x="-10" y="102" width="130" height="70" as="geometry" />
        </mxCell>
        <mxCell id="9zjzxFCtPWCpPwQ-u-JS-14" value="&lt;span style=&quot;font-size: 36px;&quot;&gt;2024.12&lt;/span&gt;" style="rounded=0;whiteSpace=wrap;html=1;fillColor=#dae8fc;strokeColor=#330000;opacity=60;labelPosition=center;verticalLabelPosition=middle;align=center;verticalAlign=middle;fontFamily=Times New Roman;fontSize=20;dashed=1;strokeWidth=3;fontStyle=1" vertex="1" parent="1">
          <mxGeometry x="510" y="101" width="130" height="70" as="geometry" />
        </mxCell>
        <mxCell id="9zjzxFCtPWCpPwQ-u-JS-15" value="&lt;span style=&quot;font-size: 36px;&quot;&gt;2025.01&lt;/span&gt;" style="rounded=0;whiteSpace=wrap;html=1;fillColor=#dae8fc;strokeColor=#330000;opacity=60;labelPosition=center;verticalLabelPosition=middle;align=center;verticalAlign=middle;fontFamily=Times New Roman;fontSize=20;dashed=1;strokeWidth=3;fontStyle=1" vertex="1" parent="1">
          <mxGeometry x="680" y="103" width="130" height="70" as="geometry" />
        </mxCell>
        <mxCell id="9zjzxFCtPWCpPwQ-u-JS-16" value="&lt;span style=&quot;font-size: 36px;&quot;&gt;2025.12&lt;/span&gt;" style="rounded=0;whiteSpace=wrap;html=1;fillColor=#dae8fc;strokeColor=#330000;opacity=60;labelPosition=center;verticalLabelPosition=middle;align=center;verticalAlign=middle;fontFamily=Times New Roman;fontSize=20;dashed=1;strokeWidth=3;fontStyle=1" vertex="1" parent="1">
          <mxGeometry x="1030" y="101" width="130" height="70" as="geometry" />
        </mxCell>
        <mxCell id="9zjzxFCtPWCpPwQ-u-JS-19" value="&lt;span style=&quot;font-size: 36px;&quot;&gt;v0.1.4&lt;/span&gt;" style="rounded=0;whiteSpace=wrap;html=1;fillColor=#dae8fc;strokeColor=#330000;opacity=60;labelPosition=center;verticalLabelPosition=middle;align=center;verticalAlign=middle;fontFamily=Times New Roman;fontSize=20;dashed=1;strokeWidth=3;fontStyle=1" vertex="1" parent="1">
          <mxGeometry x="-605" y="202" width="130" height="50" as="geometry" />
        </mxCell>
        <mxCell id="9zjzxFCtPWCpPwQ-u-JS-20" value="&lt;span style=&quot;font-size: 36px;&quot;&gt;v0.1.5&lt;/span&gt;" style="rounded=0;whiteSpace=wrap;html=1;fillColor=#dae8fc;strokeColor=#330000;opacity=60;labelPosition=center;verticalLabelPosition=middle;align=center;verticalAlign=middle;fontFamily=Times New Roman;fontSize=20;dashed=1;strokeWidth=3;fontStyle=1" vertex="1" parent="1">
          <mxGeometry x="-145" y="202" width="130" height="50" as="geometry" />
        </mxCell>
        <mxCell id="9zjzxFCtPWCpPwQ-u-JS-21" value="&lt;span style=&quot;font-size: 36px;&quot;&gt;v1.0.1&lt;/span&gt;" style="rounded=0;whiteSpace=wrap;html=1;fillColor=#dae8fc;strokeColor=#330000;opacity=60;labelPosition=center;verticalLabelPosition=middle;align=center;verticalAlign=middle;fontFamily=Times New Roman;fontSize=20;dashed=1;strokeWidth=3;fontStyle=1" vertex="1" parent="1">
          <mxGeometry x="335" y="202" width="130" height="50" as="geometry" />
        </mxCell>
        <mxCell id="9zjzxFCtPWCpPwQ-u-JS-22" value="&lt;span style=&quot;font-size: 36px;&quot;&gt;v1.0.2&lt;/span&gt;" style="rounded=0;whiteSpace=wrap;html=1;fillColor=#dae8fc;strokeColor=#330000;opacity=60;labelPosition=center;verticalLabelPosition=middle;align=center;verticalAlign=middle;fontFamily=Times New Roman;fontSize=20;dashed=1;strokeWidth=3;fontStyle=1" vertex="1" parent="1">
          <mxGeometry x="855" y="202" width="130" height="50" as="geometry" />
        </mxCell>
        <mxCell id="9zjzxFCtPWCpPwQ-u-JS-25" value="&lt;font style=&quot;font-size: 24px;&quot; face=&quot;Times New Roman&quot;&gt;离散事件调度&lt;/font&gt;" style="shape=delay;whiteSpace=wrap;html=1;fillColor=#dae8fc;strokeColor=#6c8ebf;strokeWidth=3;" vertex="1" parent="1">
          <mxGeometry x="-744" y="280" width="184" height="60" as="geometry" />
        </mxCell>
        <mxCell id="9zjzxFCtPWCpPwQ-u-JS-26" value="&lt;font style=&quot;font-size: 24px;&quot; face=&quot;Times New Roman&quot;&gt;2种Qubit模型&lt;/font&gt;" style="shape=delay;whiteSpace=wrap;html=1;fillColor=#d5e8d4;strokeColor=#82b366;strokeWidth=3;" vertex="1" parent="1">
          <mxGeometry x="-690" y="415" width="170" height="60" as="geometry" />
        </mxCell>
        <mxCell id="9zjzxFCtPWCpPwQ-u-JS-27" value="&lt;font style=&quot;font-size: 24px;&quot; face=&quot;Times New Roman&quot;&gt;量子算符&lt;/font&gt;" style="shape=delay;whiteSpace=wrap;html=1;fillColor=#d5e8d4;strokeColor=#82b366;strokeWidth=3;" vertex="1" parent="1">
          <mxGeometry x="-540" y="481" width="172" height="60" as="geometry" />
        </mxCell>
        <mxCell id="9zjzxFCtPWCpPwQ-u-JS-28" value="&lt;font face=&quot;Times New Roman&quot;&gt;&lt;span style=&quot;font-size: 24px;&quot;&gt;量子节点&lt;/span&gt;&lt;/font&gt;" style="shape=delay;whiteSpace=wrap;html=1;fillColor=#fff2cc;strokeColor=#d6b656;strokeWidth=3;" vertex="1" parent="1">
          <mxGeometry x="-646" y="546" width="185" height="60" as="geometry" />
        </mxCell>
        <mxCell id="9zjzxFCtPWCpPwQ-u-JS-29" value="&lt;font face=&quot;Times New Roman&quot;&gt;&lt;span style=&quot;font-size: 24px;&quot;&gt;量子信道&lt;/span&gt;&lt;/font&gt;" style="shape=delay;whiteSpace=wrap;html=1;fillColor=#fff2cc;strokeColor=#d6b656;strokeWidth=3;" vertex="1" parent="1">
          <mxGeometry x="-646" y="624" width="186" height="60" as="geometry" />
        </mxCell>
        <mxCell id="9zjzxFCtPWCpPwQ-u-JS-30" value="&lt;font style=&quot;font-size: 24px;&quot; face=&quot;Times New Roman&quot;&gt;路由模块&lt;/font&gt;" style="shape=delay;whiteSpace=wrap;html=1;fillColor=#f8cecc;strokeColor=#b85450;strokeWidth=3;" vertex="1" parent="1">
          <mxGeometry x="-580" y="698" width="180" height="60" as="geometry" />
        </mxCell>
        <mxCell id="9zjzxFCtPWCpPwQ-u-JS-31" value="&lt;font style=&quot;font-size: 24px;&quot; face=&quot;Times New Roman&quot;&gt;BB84协议&lt;/font&gt;" style="shape=delay;whiteSpace=wrap;html=1;fillColor=#dae8fc;strokeColor=#6c8ebf;strokeWidth=3;" vertex="1" parent="1">
          <mxGeometry x="-520" y="845" width="180" height="60" as="geometry" />
        </mxCell>
        <mxCell id="9zjzxFCtPWCpPwQ-u-JS-32" value="&lt;font face=&quot;Times New Roman&quot;&gt;&lt;span style=&quot;font-size: 24px;&quot;&gt;RNG模块&lt;/span&gt;&lt;/font&gt;" style="shape=delay;whiteSpace=wrap;html=1;fillColor=#fff2cc;strokeColor=#d6b656;strokeWidth=3;" vertex="1" parent="1">
          <mxGeometry x="-684" y="994" width="186" height="60" as="geometry" />
        </mxCell>
        <mxCell id="9zjzxFCtPWCpPwQ-u-JS-33" value="&lt;font style=&quot;font-size: 24px;&quot; face=&quot;Times New Roman&quot;&gt;拓扑生成模块&lt;/font&gt;" style="shape=delay;whiteSpace=wrap;html=1;fillColor=#f8cecc;strokeColor=#b85450;strokeWidth=3;" vertex="1" parent="1">
          <mxGeometry x="-580" y="768" width="180" height="60" as="geometry" />
        </mxCell>
        <mxCell id="9zjzxFCtPWCpPwQ-u-JS-34" value="&lt;font style=&quot;font-size: 24px;&quot; face=&quot;Times New Roman&quot;&gt;纠缠交换协议&lt;/font&gt;" style="shape=delay;whiteSpace=wrap;html=1;fillColor=#dae8fc;strokeColor=#6c8ebf;strokeWidth=3;" vertex="1" parent="1">
          <mxGeometry x="-520" y="923" width="180" height="60" as="geometry" />
        </mxCell>
        <mxCell id="9zjzxFCtPWCpPwQ-u-JS-35" value="&lt;font face=&quot;Times New Roman&quot;&gt;&lt;span style=&quot;font-size: 24px;&quot;&gt;Cython加速&lt;/span&gt;&lt;/font&gt;" style="shape=delay;whiteSpace=wrap;html=1;fillColor=#dae8fc;strokeColor=#6c8ebf;strokeWidth=3;" vertex="1" parent="1">
          <mxGeometry x="-260" y="274" width="186" height="60" as="geometry" />
        </mxCell>
        <mxCell id="9zjzxFCtPWCpPwQ-u-JS-36" value="&lt;font face=&quot;Times New Roman&quot;&gt;&lt;span style=&quot;font-size: 24px;&quot;&gt;多进程加速&lt;/span&gt;&lt;/font&gt;" style="shape=delay;whiteSpace=wrap;html=1;fillColor=#dae8fc;strokeColor=#6c8ebf;strokeWidth=3;" vertex="1" parent="1">
          <mxGeometry x="-211" y="347" width="186" height="60" as="geometry" />
        </mxCell>
        <mxCell id="9zjzxFCtPWCpPwQ-u-JS-37" value="&lt;font face=&quot;Times New Roman&quot;&gt;&lt;span style=&quot;font-size: 24px;&quot;&gt;Monitor&lt;/span&gt;&lt;/font&gt;" style="shape=delay;whiteSpace=wrap;html=1;fillColor=#fff2cc;strokeColor=#d6b656;strokeWidth=3;" vertex="1" parent="1">
          <mxGeometry x="-158" y="983" width="186" height="60" as="geometry" />
        </mxCell>
        <mxCell id="9zjzxFCtPWCpPwQ-u-JS-38" value="&lt;font face=&quot;Times New Roman&quot;&gt;&lt;span style=&quot;font-size: 24px;&quot;&gt;量子存储&lt;/span&gt;&lt;/font&gt;" style="shape=delay;whiteSpace=wrap;html=1;fillColor=#fff2cc;strokeColor=#d6b656;strokeWidth=3;" vertex="1" parent="1">
          <mxGeometry x="-210" y="530" width="185" height="60" as="geometry" />
        </mxCell>
        <mxCell id="9zjzxFCtPWCpPwQ-u-JS-39" value="&lt;font face=&quot;Times New Roman&quot;&gt;&lt;span style=&quot;font-size: 24px;&quot;&gt;添加时延模型&lt;/span&gt;&lt;/font&gt;" style="shape=delay;whiteSpace=wrap;html=1;fillColor=#fff2cc;strokeColor=#d6b656;strokeWidth=3;" vertex="1" parent="1">
          <mxGeometry x="-158" y="611" width="185" height="60" as="geometry" />
        </mxCell>
        <mxCell id="9zjzxFCtPWCpPwQ-u-JS-40" value="&lt;font style=&quot;font-size: 24px;&quot; face=&quot;Times New Roman&quot;&gt;Cascade纠错&lt;/font&gt;" style="shape=delay;whiteSpace=wrap;html=1;fillColor=#dae8fc;strokeColor=#6c8ebf;strokeWidth=3;" vertex="1" parent="1">
          <mxGeometry x="-90" y="825" width="180" height="60" as="geometry" />
        </mxCell>
        <mxCell id="9zjzxFCtPWCpPwQ-u-JS-42" value="&lt;font style=&quot;font-size: 24px;&quot; face=&quot;Times New Roman&quot;&gt;隐私放大&lt;/font&gt;" style="shape=delay;whiteSpace=wrap;html=1;fillColor=#dae8fc;strokeColor=#6c8ebf;strokeWidth=3;" vertex="1" parent="1">
          <mxGeometry x="-90" y="903" width="180" height="60" as="geometry" />
        </mxCell>
        <mxCell id="9zjzxFCtPWCpPwQ-u-JS-45" value="&lt;font style=&quot;font-size: 24px;&quot; face=&quot;Times New Roman&quot;&gt;优先队列事件池&lt;/font&gt;" style="shape=delay;whiteSpace=wrap;html=1;fillColor=#dae8fc;strokeColor=#6c8ebf;strokeWidth=3;" vertex="1" parent="1">
          <mxGeometry x="-744" y="347" width="184" height="60" as="geometry" />
        </mxCell>
        <mxCell id="9zjzxFCtPWCpPwQ-u-JS-47" value="&lt;font style=&quot;font-size: 24px;&quot; face=&quot;Times New Roman&quot;&gt;Yens算法&lt;/font&gt;" style="shape=delay;whiteSpace=wrap;html=1;fillColor=#f8cecc;strokeColor=#b85450;strokeWidth=3;" vertex="1" parent="1">
          <mxGeometry x="-90" y="702" width="180" height="60" as="geometry" />
        </mxCell>
        <mxCell id="9zjzxFCtPWCpPwQ-u-JS-48" value="&lt;font style=&quot;font-size: 24px;&quot; face=&quot;Times New Roman&quot;&gt;实际拓扑导入&lt;/font&gt;" style="shape=delay;whiteSpace=wrap;html=1;fillColor=#f8cecc;strokeColor=#b85450;strokeWidth=3;" vertex="1" parent="1">
          <mxGeometry x="270" y="671" width="200" height="60" as="geometry" />
        </mxCell>
        <mxCell id="9zjzxFCtPWCpPwQ-u-JS-49" value="&lt;font style=&quot;font-size: 24px;&quot; face=&quot;Times New Roman&quot;&gt;拓扑生成模型补充&lt;/font&gt;" style="shape=delay;whiteSpace=wrap;html=1;fillColor=#f8cecc;strokeColor=#b85450;strokeWidth=3;" vertex="1" parent="1">
          <mxGeometry x="397" y="740" width="220" height="60" as="geometry" />
        </mxCell>
        <mxCell id="9zjzxFCtPWCpPwQ-u-JS-50" value="&lt;font style=&quot;font-size: 24px;&quot; face=&quot;Times New Roman&quot;&gt;REPS算法&lt;/font&gt;" style="shape=delay;whiteSpace=wrap;html=1;fillColor=#dae8fc;strokeColor=#6c8ebf;strokeWidth=3;" vertex="1" parent="1">
          <mxGeometry x="435" y="812" width="180" height="60" as="geometry" />
        </mxCell>
        <mxCell id="9zjzxFCtPWCpPwQ-u-JS-51" value="&lt;font style=&quot;font-size: 24px;&quot; face=&quot;Times New Roman&quot;&gt;PS/PU算法&lt;/font&gt;" style="shape=delay;whiteSpace=wrap;html=1;fillColor=#dae8fc;strokeColor=#6c8ebf;strokeWidth=3;" vertex="1" parent="1">
          <mxGeometry x="434" y="890" width="180" height="60" as="geometry" />
        </mxCell>
        <mxCell id="9zjzxFCtPWCpPwQ-u-JS-52" value="&lt;font face=&quot;Times New Roman&quot;&gt;&lt;span style=&quot;font-size: 24px;&quot;&gt;容器化服务&lt;/span&gt;&lt;/font&gt;" style="shape=delay;whiteSpace=wrap;html=1;fillColor=#dae8fc;strokeColor=#6c8ebf;strokeWidth=3;" vertex="1" parent="1">
          <mxGeometry x="810" y="305" width="186" height="60" as="geometry" />
        </mxCell>
        <mxCell id="9zjzxFCtPWCpPwQ-u-JS-53" value="&lt;font face=&quot;Times New Roman&quot;&gt;&lt;span style=&quot;font-size: 24px;&quot;&gt;Monitor功能更新&lt;/span&gt;&lt;/font&gt;" style="shape=delay;whiteSpace=wrap;html=1;fillColor=#fff2cc;strokeColor=#d6b656;strokeWidth=3;" vertex="1" parent="1">
          <mxGeometry x="720" y="983" width="186" height="60" as="geometry" />
        </mxCell>
        <mxCell id="9zjzxFCtPWCpPwQ-u-JS-54" value="&lt;font face=&quot;Times New Roman&quot;&gt;&lt;span style=&quot;font-size: 24px;&quot;&gt;量子设备建模优化&lt;/span&gt;&lt;/font&gt;" style="shape=delay;whiteSpace=wrap;html=1;fillColor=#fff2cc;strokeColor=#d6b656;strokeWidth=3;" vertex="1" parent="1">
          <mxGeometry x="810" y="559" width="240" height="60" as="geometry" />
        </mxCell>
        <mxCell id="9zjzxFCtPWCpPwQ-u-JS-56" value="&lt;font style=&quot;font-size: 24px;&quot; face=&quot;Times New Roman&quot;&gt;AVL Tree事件池&lt;/font&gt;" style="shape=delay;whiteSpace=wrap;html=1;fillColor=#dae8fc;strokeColor=#6c8ebf;strokeWidth=3;" vertex="1" parent="1">
          <mxGeometry x="438" y="320" width="184" height="60" as="geometry" />
        </mxCell>
        <mxCell id="9zjzxFCtPWCpPwQ-u-JS-57" value="&lt;font style=&quot;font-size: 24px;&quot; face=&quot;Times New Roman&quot;&gt;量子网络分层框架接入&lt;/font&gt;" style="shape=delay;whiteSpace=wrap;html=1;fillColor=#dae8fc;strokeColor=#6c8ebf;strokeWidth=3;" vertex="1" parent="1">
          <mxGeometry x="751.5" y="800" width="250" height="60" as="geometry" />
        </mxCell>
        <mxCell id="9zjzxFCtPWCpPwQ-u-JS-58" value="&lt;font face=&quot;Times New Roman&quot;&gt;&lt;span style=&quot;font-size: 24px;&quot;&gt;基于QKD的加密传输demo&lt;/span&gt;&lt;/font&gt;" style="shape=delay;whiteSpace=wrap;html=1;fillColor=#fff2cc;strokeColor=#d6b656;strokeWidth=3;" vertex="1" parent="1">
          <mxGeometry x="267" y="983" width="290" height="60" as="geometry" />
        </mxCell>
        <mxCell id="9zjzxFCtPWCpPwQ-u-JS-59" value="&lt;font style=&quot;font-size: 24px;&quot; face=&quot;Times New Roman&quot;&gt;量子网络协议栈补充&lt;/font&gt;" style="shape=delay;whiteSpace=wrap;html=1;fillColor=#dae8fc;strokeColor=#6c8ebf;strokeWidth=3;" vertex="1" parent="1">
          <mxGeometry x="830" y="881" width="250" height="60" as="geometry" />
        </mxCell>
        <mxCell id="9zjzxFCtPWCpPwQ-u-JS-61" value="&lt;font style=&quot;font-size: 24px;&quot; face=&quot;Times New Roman&quot;&gt;量子纠错模型&lt;/font&gt;" style="shape=delay;whiteSpace=wrap;html=1;fillColor=#d5e8d4;strokeColor=#82b366;strokeWidth=3;" vertex="1" parent="1">
          <mxGeometry x="844" y="430" width="172" height="60" as="geometry" />
        </mxCell>
        <mxCell id="9zjzxFCtPWCpPwQ-u-JS-63" value="&lt;font style=&quot;font-size: 24px;&quot; face=&quot;Times New Roman&quot;&gt;请求生成模型补充&lt;/font&gt;" style="shape=delay;whiteSpace=wrap;html=1;fillColor=#f8cecc;strokeColor=#b85450;strokeWidth=3;" vertex="1" parent="1">
          <mxGeometry x="703" y="698" width="220" height="60" as="geometry" />
        </mxCell>
      </root>
    </mxGraphModel>
  </diagram>
</mxfile>
